---
const props = Astro.props
---
<svg xmlns="http://www.w3.org/2000/svg" width="1em" height="1em" viewBox="0 0 24 24" {...props}>
	<g fill="none" fill-rule="evenodd">
		<path d="M24 0v24H0V0zM12.594 23.258l-.012.002l-.071.035l-.02.004l-.014-.004l-.071-.036q-.016-.004-.024.006l-.004.01l-.017.428l.005.02l.01.013l.104.074l.015.004l.012-.004l.104-.074l.012-.016l.004-.017l-.017-.427q-.004-.016-.016-.018m.264-.113l-.014.002l-.184.093l-.01.01l-.003.011l.018.43l.005.012l.008.008l.201.092q.019.005.029-.008l.004-.014l-.034-.614q-.005-.019-.02-.022m-.715.002a.02.02 0 0 0-.027.006l-.006.014l-.034.614q.001.018.017.024l.015-.002l.201-.093l.01-.008l.003-.011l.018-.43l-.003-.012l-.01-.01z" />
		<path fill="currentColor" d="M10.671 2.843a2 2 0 0 1 2.658 0l3.934 3.497l.25-1.504a1 1 0 1 1 1.973.328L19.03 7.91l2.635 2.343a1 1 0 0 1-1.328 1.494l-.464-.412l-.787 7.864A2 2 0 0 1 17.095 21H6.905a2 2 0 0 1-1.99-1.801l-.786-7.864l-.465.412a1 1 0 0 1-1.328-1.494zM5.957 9.71q.028.092.038.191l.91 9.1h10.19l.91-9.1q.01-.1.038-.19L12 4.337z" />
	</g>
</svg>