<?xml version="1.0" encoding="UTF-8"?><svg id="Layer_1" xmlns="http://www.w3.org/2000/svg" viewBox="0 0 500 500"><defs><style>.cls-1{fill:#fff;}</style></defs><circle class="cls-1" cx="250" cy="250" r="200"/><path d="m250,70c48.08,0,93.28,18.72,127.28,52.72,34,34,52.72,79.2,52.72,127.28s-18.72,93.28-52.72,127.28c-34,34-79.2,52.72-127.28,52.72s-93.28-18.72-127.28-52.72c-34-34-52.72-79.2-52.72-127.28s18.72-93.28,52.72-127.28c34-34,79.2-52.72,127.28-52.72m0-40c-121.5,0-220,98.5-220,220s98.5,220,220,220,220-98.5,220-220S371.5,30,250,30h0Z"/></svg>