<?xml version="1.0" encoding="UTF-8"?><svg id="Layer_1" xmlns="http://www.w3.org/2000/svg" viewBox="0 0 226 355.2"><defs><style>.cls-1{fill:#1e90ff;}</style></defs><path class="cls-1" d="M34.4,136c-10.94,0-19.4-3.06-25.4-9.2C3,120.67,0,111.87,0,100.4c0-10.66,3.2-19.33,9.6-26,6.4-6.66,14.66-10,24.8-10,10.93,0,19.46,3.14,25.6,9.4,6.13,6.27,9.2,15.14,9.2,26.6,0,10.4-3.2,18.94-9.6,25.6-6.4,6.67-14.8,10-25.2,10Zm0,149.2c-10.94,0-19.4-3.07-25.4-9.2S0,261.07,0,249.6c0-10.66,3.2-19.33,9.6-26,6.4-6.66,14.66-10,24.8-10,10.93,0,19.46,3.14,25.6,9.4,6.13,6.27,9.2,15.14,9.2,26.6,0,10.4-3.2,18.94-9.6,25.6-6.4,6.66-14.8,10-25.2,10Z"/><path class="cls-1" d="M125.6,355.2l-36-34c24.53-17.07,42.8-38.14,54.8-63.2s18-51.86,18-80.4-6-55.33-18-80.4c-12-25.06-30.27-46.13-54.8-63.2L126,0c32.53,20.27,57.33,45.6,74.4,76,17.06,30.4,25.6,64.27,25.6,101.6s-8.6,70.87-25.8,101.4-42.07,55.93-74.6,76.2Z"/></svg>