<svg width="325" height="325" viewBox="0 0 325 325" fill="none" xmlns="http://www.w3.org/2000/svg">
<path d="M126.136 43.9438L68.8219 101.29L113.421 88.5756H113.454L126.136 43.9438Z" fill="#31D8FF"/>
<path d="M156.593 45.4359L126.136 43.9438L113.454 88.5755L156.593 45.4359Z" fill="#00B1F7"/>
<path d="M209.593 184.748L196.879 229.379L254.225 172.033L209.593 184.748Z" fill="#31D8FF"/>
<path d="M209.593 184.747L254.225 172.032L252.766 141.575L209.593 184.747Z" fill="#00B1F7"/>
<path d="M207.972 7.1936L297.397 96.8787L306.479 19.5841L207.972 7.1936ZM276.671 42.873C275.609 43.9342 274.257 44.6567 272.785 44.9493C271.312 45.2419 269.786 45.0914 268.4 44.5168C267.013 43.9422 265.828 42.9694 264.994 41.7213C264.16 40.4732 263.715 39.0059 263.715 37.5049C263.715 36.0039 264.16 34.5366 264.994 33.2885C265.828 32.0404 267.013 31.0675 268.4 30.493C269.786 29.9184 271.312 29.7679 272.785 30.0605C274.257 30.3531 275.609 31.0756 276.671 32.1368C277.387 32.8455 277.955 33.6892 278.343 34.6189C278.731 35.5487 278.93 36.5461 278.93 37.5535C278.93 38.561 278.731 39.5584 278.343 40.4881C277.955 41.4179 277.387 42.2615 276.671 42.9703V42.873Z" fill="#00B1F7"/>
<path d="M265.902 32.2665C264.841 33.3281 264.118 34.6805 263.826 36.1527C263.533 37.625 263.683 39.1509 264.258 40.5376C264.833 41.9243 265.805 43.1095 267.054 43.9433C268.302 44.7771 269.769 45.2222 271.27 45.2222C272.771 45.2222 274.238 44.7771 275.486 43.9433C276.734 43.1095 277.707 41.9243 278.282 40.5376C278.856 39.1509 279.007 37.625 278.714 36.1527C278.422 34.6805 277.699 33.3281 276.638 32.2665C275.933 31.5614 275.096 31.002 274.175 30.6203C273.254 30.2387 272.267 30.0422 271.27 30.0422C270.273 30.0422 269.286 30.2387 268.365 30.6203C267.444 31.002 266.607 31.5614 265.902 32.2665Z" fill="white"/>
<path d="M181.471 127.044C180.791 131.404 178.739 135.434 175.612 138.548C172.486 141.663 168.449 143.7 164.086 144.364L152.733 146.116L134.504 259.641L209.561 184.585L252.733 141.413L297.397 96.8784L183.255 115.172L181.471 127.044Z" fill="#00B1F7"/>
<path d="M297.527 96.7814L201.387 0.641602V0.674037L297.527 96.7814Z" fill="#00B1F7"/>
<path d="M38.3646 163.664L86.4345 211.734H86.4669V211.767L134.504 259.837V259.772L152.733 146.117L38.3646 163.664Z" fill="#31D8FF"/>
<path d="M183.385 115.075L297.527 96.7812L201.387 0.673828L183.385 115.075Z" fill="#31D8FF"/>
<path d="M201.355 0.641602L156.593 45.403L113.454 88.5751L38.3646 163.632L152.733 146.116L164.086 144.365C168.448 143.7 172.486 141.663 175.612 138.549C178.738 135.434 180.791 131.404 181.471 127.044L183.385 115.075L201.387 0.67402L201.355 0.641602Z" fill="#3890FF"/>
<path d="M86.4669 211.734H86.4345H0.641724L43.5543 254.647L86.4669 211.734Z" fill="#31D8FF"/>
<path d="M43.5543 254.647L86.4669 297.56V211.767V211.734L43.5543 254.647Z" fill="#00B1F7"/>
</svg>
